<?xml version="1.0" encoding="UTF-8" standalone="no"?>
<!-- Created with Inkscape (http://www.inkscape.org/) -->
<svg
   xmlns:dc="http://purl.org/dc/elements/1.1/"
   xmlns:cc="http://creativecommons.org/ns#"
   xmlns:rdf="http://www.w3.org/1999/02/22-rdf-syntax-ns#"
   xmlns:svg="http://www.w3.org/2000/svg"
   xmlns="http://www.w3.org/2000/svg"
   xmlns:sodipodi="http://sodipodi.sourceforge.net/DTD/sodipodi-0.dtd"
   xmlns:inkscape="http://www.inkscape.org/namespaces/inkscape"
   id="svg4879"
   sodipodi:version="0.32"
   inkscape:version="0.46"
   width="630"
   height="540"
   xml:space="preserve"
   sodipodi:docname="xerobis-logo.svg"
   inkscape:output_extension="org.inkscape.output.svg.inkscape"><metadata
     id="metadata4884"><rdf:RDF><cc:Work
         rdf:about=""><dc:format>image/svg+xml</dc:format><dc:type
           rdf:resource="http://purl.org/dc/dcmitype/StillImage" /></cc:Work></rdf:RDF></metadata><defs
     id="defs4882"><inkscape:perspective
       sodipodi:type="inkscape:persp3d"
       inkscape:vp_x="0 : 526.18109 : 1"
       inkscape:vp_y="0 : 1000 : 0"
       inkscape:vp_z="744.09448 : 526.18109 : 1"
       inkscape:persp3d-origin="372.04724 : 350.78739 : 1"
       id="perspective4886" /><linearGradient
       x1="0"
       y1="0"
       x2="1"
       y2="0"
       gradientUnits="userSpaceOnUse"
       gradientTransform="matrix(-2.8559875,-54.495529,-54.495529,2.8560028,135.14697,242.10107)"
       spreadMethod="pad"
       id="linearGradient4902"><stop
         style="stop-opacity:1;stop-color:#be1e2d"
         offset="0"
         id="stop4904" /><stop
         style="stop-opacity:1;stop-color:#711e2d"
         offset="1"
         id="stop4906" /></linearGradient><clipPath
       clipPathUnits="userSpaceOnUse"
       id="clipPath4914"><path
         d="M 0,432 L 504,432 L 504,0 L 0,0 L 0,432 z"
         id="path4916" /></clipPath><linearGradient
       x1="0"
       y1="0"
       x2="1"
       y2="0"
       gradientUnits="userSpaceOnUse"
       gradientTransform="matrix(-2.8560181,-54.496017,-54.496017,2.8560181,73.773437,241.20166)"
       spreadMethod="pad"
       id="linearGradient4938"><stop
         style="stop-opacity:1;stop-color:#be1e2d"
         offset="0"
         id="stop4940" /><stop
         style="stop-opacity:1;stop-color:#711e2d"
         offset="1"
         id="stop4942" /></linearGradient><clipPath
       clipPathUnits="userSpaceOnUse"
       id="clipPath4950"><path
         d="M 0,432 L 504,432 L 504,0 L 0,0 L 0,432 z"
         id="path4952" /></clipPath></defs><sodipodi:namedview
     inkscape:window-height="728"
     inkscape:window-width="1280"
     inkscape:pageshadow="2"
     inkscape:pageopacity="0.0"
     guidetolerance="10.0"
     gridtolerance="10.0"
     objecttolerance="10.0"
     borderopacity="1.0"
     bordercolor="#666666"
     pagecolor="#ffffff"
     id="base"
     showgrid="false"
     inkscape:zoom="5.0176959"
     inkscape:cx="128.92625"
     inkscape:cy="269.046"
     inkscape:window-x="-4"
     inkscape:window-y="-4"
     inkscape:current-layer="g4910" /><g
     id="g4888"
     inkscape:groupmode="layer"
     inkscape:label="xerobis-logo"
     transform="matrix(1.25,0,0,-1.25,0,540)"><g
       id="g4890"
       style="fill:#cc3333;fill-opacity:1"><g
         id="g4892"
         style="fill:#cc3333;fill-opacity:1"><g
           id="g4898"
           style="fill:#cc3333;fill-opacity:1"><g
             id="g4900"
             style="fill:#cc3333;fill-opacity:1"><path
               d="M 123.697,214.913 C 123.824,198.793 142.321,187.08 142.321,187.08 L 142.321,187.08 L 142.321,241.726 C 122.917,229.876 123.697,214.913 123.697,214.913"
               style="fill:#cc3333;stroke:none;fill-opacity:1"
               id="path4908" /></g></g></g></g><g
       id="g4910"
       style="fill:#cc3333;fill-opacity:1"><g
         id="g4912"
         clip-path="url(#clipPath4914)"
         style="fill:#cc3333;fill-opacity:1"
         inkscape:export-filename="C:\git\xerobis\assets\favicon.png"
         inkscape:export-xdpi="14.38"
         inkscape:export-ydpi="14.38"><g
           id="g4918"
           transform="translate(64.3745,251.4355)"
           style="fill:#cc3333;fill-opacity:1"><path
             d="M 0,0 C 0,0 23.925,0.208 37.864,-13.107 C 37.864,-13.107 50.071,0.136 77.533,0 L 73.928,4.856 L 3.472,4.856 L 0,0 z"
             style="fill:#cc3333;fill-opacity:1;fill-rule:evenodd;stroke:none"
             id="path4920" /></g><g
           id="g4922"
           transform="translate(66.3154,176.9531)"
           style="fill:#cc3333;fill-opacity:1"><path
             d="M 0,0 C 0,0 20.524,1.807 36.2,13.041 C 36.2,13.041 52.015,0.697 73.511,0.143 L 71.291,-2.771 L 2.496,-2.771 L 0,0 z"
             style="fill:#cc3333;fill-opacity:1;fill-rule:evenodd;stroke:none"
             id="path4924" /></g></g></g><g
       id="g4926"
       style="fill:#cc3333;fill-opacity:1"><g
         id="g4928"
         style="fill:#cc3333;fill-opacity:1"><g
           id="g4934"
           style="fill:#cc3333;fill-opacity:1"><g
             id="g4936"
             style="fill:#cc3333;fill-opacity:1"><path
               d="M 63.777,187.08 C 63.777,187.08 82.273,198.793 82.4,214.913 L 82.4,214.913 C 82.4,214.913 83.18,229.876 63.777,241.726 L 63.777,241.726 L 63.777,187.08 z"
               style="fill:#cc3333;stroke:none;fill-opacity:1"
               id="path4944" /></g></g></g></g><g
       id="g4946"><g
         id="g4948"
         clip-path="url(#clipPath4950)"><g
           id="g4954"
           transform="translate(204.1064,175.1406)"><path
             d="M 0,0 L -18.825,0 L -24.7,18.885 L -30.215,0 L -47.301,0 L -33.932,36.811 L -46.942,69.604 L -28.896,69.604 L -23.081,51.558 L -18.465,69.604 L -2.219,69.604 L -13.669,35.971 L 0,0 z"
             style="fill:#000000;fill-opacity:1;fill-rule:nonzero;stroke:none"
             id="path4956" /></g><g
           id="g4958"
           transform="translate(229.2852,215.0684)"><path
             d="M 0,0 L 0,15.947 C 0,18.225 -0.96,19.364 -2.878,19.364 C -4.836,19.364 -5.814,18.225 -5.814,15.947 L -5.814,0 L 0,0 z M 17.086,-10.432 L -5.814,-10.432 L -5.814,-26.678 C -5.814,-29.037 -4.836,-30.215 -2.878,-30.215 C -0.96,-30.215 0,-29.037 0,-26.678 L 0,-12.65 L 17.086,-12.65 L 17.086,-26.797 C 17.086,-36.189 10.392,-40.887 -2.997,-40.887 C -16.267,-40.887 -22.901,-35.99 -22.901,-26.197 L -22.901,15.467 C -22.901,25.259 -16.267,30.155 -2.997,30.155 C 10.392,30.155 17.086,25.458 17.086,16.067 L 17.086,-10.432 z"
             style="fill:#000000;fill-opacity:1;fill-rule:nonzero;stroke:none"
             id="path4960" /></g><g
           id="g4962"
           transform="translate(290.6758,215.9082)"><path
             d="M 0,0 L -17.086,0 L -17.086,15.107 C -17.086,17.225 -18.066,18.285 -20.023,18.285 C -21.982,18.285 -22.961,17.266 -22.961,15.227 L -22.961,-40.768 L -40.047,-40.768 L -40.047,28.836 L -22.961,28.836 L -22.961,26.498 C -20.684,28.376 -17.166,29.315 -12.41,29.315 C -9.014,29.315 -6.096,28.406 -3.656,26.588 C -1.219,24.769 0,22.381 0,19.424 L 0,0 z"
             style="fill:#000000;fill-opacity:1;fill-rule:nonzero;stroke:none"
             id="path4964" /></g><g
           id="g4966"
           transform="translate(316.5742,188.3906)"><path
             d="M 0,0 L 0,42.625 C 0,44.903 -0.98,46.042 -2.938,46.042 C -4.936,46.042 -5.936,44.903 -5.936,42.625 L -5.936,0 C -5.936,-2.359 -4.936,-3.537 -2.938,-3.537 C -0.98,-3.537 0,-2.359 0,0 M -23.021,0.48 L -23.021,42.145 C -23.021,51.937 -16.246,56.833 -2.697,56.833 C 2.537,56.833 7.145,55.694 11.121,53.416 C 15.098,51.138 17.086,47.58 17.086,42.745 L 17.086,-0.119 C 17.086,-9.512 10.492,-14.209 -2.697,-14.209 C -16.246,-14.209 -23.021,-9.313 -23.021,0.48"
             style="fill:#000000;fill-opacity:1;fill-rule:nonzero;stroke:none"
             id="path4968" /></g><g
           id="g4970"
           transform="translate(360.0391,188.1504)"><path
             d="M 0,0 L 0,43.105 C 0,45.223 -0.98,46.282 -2.938,46.282 C -4.938,46.282 -5.936,45.263 -5.936,43.225 L -5.936,0 C -5.936,-2.119 -4.938,-3.178 -2.938,-3.178 C -0.98,-3.178 0,-2.119 0,0 M -8.643,-10.672 L -10.086,-13.01 L -23.021,-13.01 L -23.021,72.96 L -5.936,72.96 L -5.936,54.496 C -3.891,56.213 -0.346,57.073 4.705,57.073 C 7.789,57.073 10.623,56.244 13.209,54.585 C 15.793,52.926 17.086,50.539 17.086,47.421 L 17.086,-2.578 C 17.086,-6.096 15.543,-8.873 12.457,-10.91 C 9.371,-12.949 5.664,-13.969 1.336,-13.969 C -2.029,-13.969 -5.355,-12.869 -8.643,-10.672"
             style="fill:#000000;fill-opacity:1;fill-rule:nonzero;stroke:none"
             id="path4972" /></g><path
           d="M 397.629,175.141 L 380.543,175.141 L 380.543,244.745 L 397.629,244.745 L 397.629,175.141 z M 397.629,248.581 L 380.543,248.581 L 380.543,261.111 L 397.629,261.111 L 397.629,248.581 z"
           style="fill:#000000;fill-opacity:1;fill-rule:nonzero;stroke:none"
           id="path4974" /><g
           id="g4976"
           transform="translate(401.1055,203.1387)"><path
             d="M 0,0 L 17.086,0 L 17.086,-14.748 C 17.086,-17.107 18.045,-18.285 19.965,-18.285 C 21.883,-18.285 22.842,-16.027 22.842,-11.512 C 22.842,-5.637 21.662,-1.84 19.305,-0.121 C 10.391,4.555 5.016,7.823 3.178,9.682 C 1.338,11.54 0.42,14.328 0.42,18.045 L 0.42,27.397 C 0.42,37.189 7.055,42.085 20.324,42.085 C 33.232,42.085 39.688,37.388 39.688,27.997 L 39.688,14.268 L 23.021,14.268 L 23.381,22.601 C 23.381,28.396 22.322,31.294 20.203,31.294 C 18.084,31.294 17.025,29.475 17.025,25.838 C 17.025,22.081 17.496,19.244 18.436,17.325 C 19.373,15.406 24.6,12.109 34.113,7.434 C 38.068,4.596 40.047,0.838 40.047,-3.838 L 40.047,-14.268 C 40.047,-24.061 33.303,-28.957 19.814,-28.957 C 6.604,-28.957 0,-24.26 0,-14.867 L 0,0 z"
             style="fill:#000000;fill-opacity:1;fill-rule:nonzero;stroke:none"
             id="path4978" /></g><text
           transform="matrix(1,0,0,-1,193.4438,42.7881)"
           id="text4980"><tspan
             style="fill:#000000;fill-opacity:1;fill-rule:nonzero;stroke:none;font-family:Arial;font-variant:normal;font-weight:normal;font-stretch:normal;font-size:15.8192;writing-mode:lr;-inkscape-font-specification:ArialMT"
             x="0 11.4214624 22.8429248 33.3943312 37.7920688 45.7016688 54.497144 59.7649376 68.5604128 77.355888 80.8677504 88.7773504 93.175088 101.084688 109.8801632 114.2779008 123.073376"
             y="0"
             sodipodi:role="line"
             id="tspan4982">www.xerobis.co.uk</tspan></text>
</g></g></g></svg>